<?xml version="1.0" standalone="no"?>
<svg viewBox="0 0 200 200" xmlns="http://www.w3.org/2000/svg">
  <path fill="#DEEBF8" d="M40,-61.7C53.2,-53.8,66.2,-45,74.1,-32.4C82,-19.9,84.9,-3.6,83.5,12.6C82.2,28.9,76.6,45.3,66.7,59.1C56.8,72.9,42.4,84.1,27.3,84.8C12.2,85.6,-3.6,75.7,-18.1,68.4C-32.7,61.1,-46,56.3,-59,47.6C-71.9,38.9,-84.4,26.4,-86.9,12.2C-89.4,-2.1,-82,-18,-74.2,-33.5C-66.5,-48.9,-58.5,-63.7,-46,-72C-33.6,-80.3,-16.8,-82,-1.7,-79.4C13.4,-76.7,26.8,-69.7,40,-61.7Z" transform="translate(100 100)" />
</svg>
